<svg width="40" height="40" viewBox="0 0 40 40" fill="none" xmlns="http://www.w3.org/2000/svg">
<path d="M33.332 26.6663C31.1654 26.6663 29.1654 26.333 27.1654 25.6663C26.832 25.4997 26.4987 25.6663 26.332 25.833L22.1654 29.9997L21.6654 29.6663C16.832 27.1663 12.832 23.1663 10.332 18.333L9.9987 17.833L14.1654 13.6663C14.332 13.4997 14.4987 13.1663 14.332 12.833C13.6654 10.833 13.332 8.83301 13.332 6.66634C13.332 6.16634 12.9987 5.83301 12.4987 5.83301H6.66536C6.16536 5.83301 5.83203 6.16634 5.83203 6.66634C5.83203 21.833 18.1654 34.1663 33.332 34.1663C33.832 34.1663 34.1654 33.833 34.1654 33.333V27.4997C34.1654 26.9997 33.832 26.6663 33.332 26.6663ZM8.83203 14.9997C8.16537 12.833 7.66536 10.6663 7.4987 8.33301V7.49967H11.6654V8.33301C11.832 9.83301 11.9987 11.1663 12.332 12.4997L12.4987 12.9997L9.16536 16.333L8.83203 14.9997ZM32.4987 32.4997H31.6654C29.4987 32.333 27.1654 31.833 25.1654 31.1663L23.832 30.6663L27.1654 27.333L27.6654 27.4997C28.9987 27.833 30.4987 28.1663 31.832 28.1663H32.6654V32.4997H32.4987Z" fill="#4F4F4F"/>
<path d="M34.1654 15.833V5.83301H20.832V19.6663L24.6654 15.833H34.1654ZM22.4987 7.49967H32.4987V14.1663H22.4987V7.49967Z" fill="#4F4F4F"/>
</svg>
