<svg width="16" height="19" viewBox="0 0 16 19" fill="none" xmlns="http://www.w3.org/2000/svg">
<path d="M13.8333 0.666992H2.16667C1.24167 0.666992 0.5 1.41699 0.5 2.33366V14.0003C0.5 14.917 1.24167 15.667 2.16667 15.667H5.5L8 18.167L10.5 15.667H13.8333C14.75 15.667 15.5 14.917 15.5 14.0003V2.33366C15.5 1.41699 14.75 0.666992 13.8333 0.666992ZM13.8333 14.0003H9.80833L9.31667 14.492L8 15.8087L6.675 14.4837L6.19167 14.0003H2.16667V2.33366H13.8333V14.0003ZM7.16667 11.5003H8.83333V13.167H7.16667V11.5003ZM8 4.83366C8.91667 4.83366 9.66667 5.58366 9.66667 6.50033C9.66667 8.16699 7.16667 7.95866 7.16667 10.667H8.83333C8.83333 8.79199 11.3333 8.58366 11.3333 6.50033C11.3333 4.65866 9.84167 3.16699 8 3.16699C6.15833 3.16699 4.66667 4.65866 4.66667 6.50033H6.33333C6.33333 5.58366 7.08333 4.83366 8 4.83366Z" fill="#323232"/>
</svg>
