<svg width="16" height="20" viewBox="0 0 16 20" fill="none" xmlns="http://www.w3.org/2000/svg">
<path fill-rule="evenodd" clip-rule="evenodd" d="M0.5 8.33301C0.5 4.19134 3.85833 0.833008 8 0.833008C12.1417 0.833008 15.5 4.19134 15.5 8.33301V16.6663C15.5 18.0497 14.3833 19.1663 13 19.1663H8V17.4997H13.8333V16.6663H10.5V9.99967H13.8333V8.33301C13.8333 5.10801 11.225 2.49967 8 2.49967C4.775 2.49967 2.16667 5.10801 2.16667 8.33301V9.99967H5.5V16.6663H3C1.61667 16.6663 0.5 15.5497 0.5 14.1663V8.33301ZM3.83333 11.6663V14.9997H3C2.54167 14.9997 2.16667 14.6247 2.16667 14.1663V11.6663H3.83333ZM13.8333 11.6663V14.9997H12.1667V11.6663H13.8333Z" fill="#222222"/>
</svg>
