<svg width="61" height="60" viewBox="0 0 61 60" fill="none" xmlns="http://www.w3.org/2000/svg">
<circle cx="30.3486" cy="30" r="30" fill="#FCC800"/>
<g clip-path="url(#clip0)">
<path d="M36.8376 16.1538H23.8593C22.9618 16.1538 22.2715 16.8407 22.2715 17.7336V30.5095C22.2715 31.4024 22.9618 32.0893 23.8593 32.0893H29.8652C29.7961 33.6005 29.1748 35.249 28.2774 36.7601C27.2419 38.4086 25.0328 40.2631 24.9638 40.2631C24.7567 40.4005 24.6877 40.6066 24.6877 40.8813C24.6877 41.0874 24.7567 41.2248 24.8948 41.4308L29.0368 46.1016C29.0368 46.1016 29.2439 46.3077 29.3819 46.3763C29.589 46.445 29.7961 46.445 29.9342 46.3077C37.1827 40.8126 38.2182 33.8752 38.3563 30.0974V17.8023C38.4253 16.8407 37.666 16.1538 36.8376 16.1538Z" fill="white"/>
</g>
<defs>
<clipPath id="clip0">
<rect width="16.1538" height="30.1538" fill="white" transform="translate(22.2715 16.1538)"/>
</clipPath>
</defs>
</svg>
