<svg width="61" height="60" viewBox="0 0 61 60" fill="none" xmlns="http://www.w3.org/2000/svg">
<circle cx="30.6953" cy="30" r="30" fill="#5EC539"/>
<g clip-path="url(#clip0)">
<path d="M30.6958 19.8212C29.4992 19.8212 28.3881 19.9869 27.277 20.2356V17.9975V17.7488C27.277 17.6659 27.277 17.6659 27.277 17.5831C27.0205 14.7647 24.7983 12.6924 22.0633 12.6924C19.3282 12.6924 17.106 14.7647 16.8496 17.5831C16.8496 17.6659 16.8496 27.1157 16.8496 27.1157V33.3327V33.4156C16.9351 40.793 23.0889 46.6784 30.6958 46.6784C38.3026 46.6784 44.5419 40.6272 44.5419 33.2498C44.5419 25.8723 38.3026 19.8212 30.6958 19.8212ZM30.6958 44.689C24.2 44.689 18.9864 39.6325 18.9864 33.3327V17.8317C18.9864 16.1739 20.3539 14.8476 22.0633 14.8476C23.7727 14.8476 25.1402 16.1739 25.1402 17.8317V33.1669C25.1402 36.151 27.6188 38.7207 30.6958 38.7207C33.7727 38.7207 36.2513 36.3168 36.2513 33.3327C36.2513 30.3485 33.7727 27.9446 30.6958 27.9446C29.4137 27.9446 28.2171 28.3591 27.277 29.1051V26.7841C28.3026 26.2868 29.4992 25.9552 30.6958 25.9552C34.8838 25.9552 38.2171 29.2709 38.2171 33.2498C38.2171 37.3115 34.7983 40.5443 30.6958 40.5443C26.5077 40.5443 23.1744 37.2286 23.1744 33.2498V17.7488C23.1744 17.2515 22.6616 16.7541 22.1488 16.7541C21.5505 16.7541 21.1231 17.2515 21.1231 17.7488V33.3327C21.1231 33.5813 21.1231 33.83 21.1231 33.9958C21.465 38.8865 25.653 42.6995 30.7812 42.6995C36.1658 42.6995 40.4394 38.472 40.4394 33.3327C40.4394 28.1104 36.0804 23.9658 30.7812 23.9658C29.5847 23.9658 28.4735 24.2145 27.3624 24.546V22.4737C28.4735 22.1422 29.5847 21.9764 30.7812 21.9764C37.277 21.9764 42.4906 27.0328 42.4906 33.3327C42.4052 39.5496 37.1915 44.689 30.6958 44.689ZM27.277 33.2498C27.277 31.4261 28.8154 29.9341 30.6958 29.9341C32.5761 29.9341 34.1146 31.4261 34.1146 33.2498C34.1146 35.0734 32.5761 36.5655 30.6958 36.5655C28.8154 36.5655 27.277 35.0734 27.277 33.2498Z" fill="white"/>
</g>
<defs>
<clipPath id="clip0">
<rect width="27.6923" height="33.986" fill="white" transform="translate(16.8496 12.6924)"/>
</clipPath>
</defs>
</svg>
