<svg width="15" height="14" viewBox="0 0 15 14" fill="none" xmlns="http://www.w3.org/2000/svg">
<path d="M4.7 7.7002C3.398 7.7002 2.313 8.5962 1.998 9.8002H0.5V11.2002H1.998C2.313 12.4042 3.398 13.3002 4.7 13.3002C6.002 13.3002 7.087 12.4042 7.402 11.2002H14.5V9.8002H7.402C7.087 8.5962 6.002 7.7002 4.7 7.7002ZM4.7 11.9002C3.93 11.9002 3.3 11.2702 3.3 10.5002C3.3 9.7302 3.93 9.1002 4.7 9.1002C5.47 9.1002 6.1 9.7302 6.1 10.5002C6.1 11.2702 5.47 11.9002 4.7 11.9002ZM13.002 2.8002C12.687 1.5962 11.602 0.700195 10.3 0.700195C8.998 0.700195 7.913 1.5962 7.598 2.8002H0.5V4.2002H7.598C7.913 5.4042 8.998 6.3002 10.3 6.3002C11.602 6.3002 12.687 5.4042 13.002 4.2002H14.5V2.8002H13.002ZM10.3 4.9002C9.53 4.9002 8.9 4.2702 8.9 3.5002C8.9 2.7302 9.53 2.1002 10.3 2.1002C11.07 2.1002 11.7 2.7302 11.7 3.5002C11.7 4.2702 11.07 4.9002 10.3 4.9002Z" fill="#4F4F4F"/>
</svg>
