<svg width="14" height="14" viewBox="0 0 14 14" fill="none" xmlns="http://www.w3.org/2000/svg">
<path d="M4.2 7.7002C2.898 7.7002 1.813 8.5962 1.498 9.8002H0V11.2002H1.498C1.813 12.4042 2.898 13.3002 4.2 13.3002C5.502 13.3002 6.587 12.4042 6.902 11.2002H14V9.8002H6.902C6.587 8.5962 5.502 7.7002 4.2 7.7002ZM4.2 11.9002C3.43 11.9002 2.8 11.2702 2.8 10.5002C2.8 9.7302 3.43 9.1002 4.2 9.1002C4.97 9.1002 5.6 9.7302 5.6 10.5002C5.6 11.2702 4.97 11.9002 4.2 11.9002ZM12.502 2.8002C12.187 1.5962 11.102 0.700195 9.8 0.700195C8.498 0.700195 7.413 1.5962 7.098 2.8002H0V4.2002H7.098C7.413 5.4042 8.498 6.3002 9.8 6.3002C11.102 6.3002 12.187 5.4042 12.502 4.2002H14V2.8002H12.502ZM9.8 4.9002C9.03 4.9002 8.4 4.2702 8.4 3.5002C8.4 2.7302 9.03 2.1002 9.8 2.1002C10.57 2.1002 11.2 2.7302 11.2 3.5002C11.2 4.2702 10.57 4.9002 9.8 4.9002Z" fill="#4F4F4F"/>
</svg>
