<svg width="40" height="40" viewBox="0 0 40 40" fill="none" xmlns="http://www.w3.org/2000/svg">
<path d="M27.5013 5.83301C24.8346 5.83301 22.3346 6.99967 20.668 8.99967L20.0013 9.83301L19.3346 9.16634C17.668 7.16634 15.0013 5.99967 12.5013 5.99967C7.83464 5.99967 4.16797 9.66634 4.16797 14.333C4.16797 20.1663 9.66797 25.333 18.0013 32.833L19.8346 34.4997L21.668 32.833C30.168 25.1663 35.668 20.1663 35.668 14.1663C35.8346 9.49967 32.168 5.83301 27.5013 5.83301ZM20.668 31.4997L20.0013 32.333L19.168 31.4997C11.168 24.1663 5.83464 19.333 5.83464 14.1663C5.83464 10.333 8.66797 7.49967 12.5013 7.49967C15.168 7.49967 17.8346 9.16634 19.0013 11.4997H21.0013C22.168 9.16634 24.8346 7.49967 27.5013 7.49967C31.3346 7.49967 34.168 10.333 34.168 14.1663C34.168 19.333 28.8346 24.1663 20.668 31.4997Z" fill="#4F4F4F"/>
</svg>
