<svg width="16" height="20" viewBox="0 0 16 20" fill="none" xmlns="http://www.w3.org/2000/svg">
<path d="M8 0.833008L0.5 4.16634V9.16634C0.5 13.7913 3.7 18.1163 8 19.1663C12.3 18.1163 15.5 13.7913 15.5 9.16634V4.16634L8 0.833008ZM13.8333 9.16634C13.8333 10.708 13.4083 12.208 12.6833 13.508L11.475 12.2997C12.55 10.683 12.3667 8.48301 10.9417 7.05801C9.31667 5.43301 6.675 5.43301 5.05 7.05801C3.425 8.68301 3.425 11.3247 5.05 12.9497C6.475 14.3747 8.675 14.5497 10.2917 13.483L11.725 14.9163C10.7333 16.0997 9.45 17.008 8 17.4497C4.65 16.408 2.16667 12.933 2.16667 9.16634V5.24967L8 2.65801L13.8333 5.24967V9.16634ZM8 12.4997C6.61667 12.4997 5.5 11.383 5.5 9.99967C5.5 8.61634 6.61667 7.49967 8 7.49967C9.38333 7.49967 10.5 8.61634 10.5 9.99967C10.5 11.383 9.38333 12.4997 8 12.4997Z" fill="#222222"/>
</svg>
