<svg width="18" height="18" viewBox="0 0 18 18" fill="none" xmlns="http://www.w3.org/2000/svg">
<path fill-rule="evenodd" clip-rule="evenodd" d="M12.3346 0.666992H1.5013C1.04297 0.666992 0.667969 1.04199 0.667969 1.50033V13.167L4.0013 9.83366H12.3346C12.793 9.83366 13.168 9.45866 13.168 9.00033V1.50033C13.168 1.04199 12.793 0.666992 12.3346 0.666992ZM11.5013 2.33367V8.167H3.30966L2.818 8.65867L2.33467 9.142V2.33367H11.5013ZM14.8346 4.00032H16.5013C16.9596 4.00032 17.3346 4.37532 17.3346 4.83365V17.3337L14.0013 14.0003H4.83461C4.37627 14.0003 4.00127 13.6253 4.00127 13.167V11.5003H14.8346V4.00032Z" fill="#222222"/>
</svg>
