<svg width="40" height="40" viewBox="0 0 40 40" fill="none" xmlns="http://www.w3.org/2000/svg">
<path d="M27.5 19.167H12.5V20.8337H27.5V19.167Z" fill="#4F4F4F"/>
<path d="M22.5 25.833H12.5V27.4997H22.5V25.833Z" fill="#4F4F4F"/>
<path d="M31.6654 5.83333H29.1654V2.5H27.4987V5.83333H12.4987V2.5H10.832V5.83333H8.33203C6.9987 5.83333 5.83203 7 5.83203 8.33333V31.6667C5.83203 33 6.9987 34.1667 8.33203 34.1667H31.6654C32.9987 34.1667 34.1654 33 34.1654 31.6667V8.33333C34.1654 7 32.9987 5.83333 31.6654 5.83333ZM32.4987 32.5H7.4987V14.1667H32.4987V32.5ZM32.4987 12.5H7.4987V7.5H32.4987V12.5Z" fill="#4F4F4F"/>
</svg>
