<svg width="40" height="40" viewBox="0 0 40 40" fill="none" xmlns="http://www.w3.org/2000/svg">
<path d="M33 14.1667H27.6667V7.5H5C3.66667 7.5 2.5 8.66667 2.5 10V27.5H5.83333V28.3333C5.83333 30.6667 7.66667 32.5 10 32.5C12.3333 32.5 14.1667 30.6667 14.1667 28.3333V27.5H25.8333V28.3333C25.8333 30.6667 27.6667 32.5 30 32.5C32.3333 32.5 34.1667 30.6667 34.1667 28.3333V27.5H37.5V20.3333L33 14.1667ZM10 30.8333C8.66667 30.8333 7.5 29.6667 7.5 28.3333C7.5 27 8.66667 25.8333 10 25.8333C11.3333 25.8333 12.5 27 12.5 28.3333C12.5 29.6667 11.3333 30.8333 10 30.8333ZM25.8333 25.8333H13.3333L13.1667 25.5C11.5 23.6667 8.66667 23.6667 7 25.5L6.66667 25.8333H4.16667V10.1667C4.16667 9.61438 4.61438 9.16667 5.16667 9.16667H25.8333V25.8333ZM30 30.8333C28.6667 30.8333 27.5 29.6667 27.5 28.3333C27.5 27 28.6667 25.8333 30 25.8333C31.3333 25.8333 32.5 27 32.5 28.3333C32.5 29.6667 31.3333 30.8333 30 30.8333ZM28.3333 20V15.8333H32.5L35.8333 20H28.3333Z" fill="#4F4F4F"/>
</svg>
